REM DIRINDEX 1\2\4,1\2\5,1\2\6,1\3\7,1\3\8,1\3\9,1\3\10
REM DIRNAME cjc057,folder01,folder02,folder03,folder04,folder05,folder06,folder07,folder08,folder09
TITLE ""
FILE "b_034.mp3" MP3
  TRACK 01 AUDIO
    TITLE "0:"
    INDEX 01 00:00:00
  TRACK 02 AUDIO
    TITLE "7:cjc057_05222"
    INDEX 01 00:00:15
  TRACK 03 AUDIO
    TITLE "0:"
    INDEX 01 00:01:50
  TRACK 04 AUDIO
    TITLE "8:cjc057_05223"
    INDEX 01 00:01:73
  TRACK 05 AUDIO
    TITLE "0:"
    INDEX 01 00:03:25
  TRACK 06 AUDIO
    TITLE "9:cjc057_05224"
    INDEX 01 00:03:64
  TRACK 07 AUDIO
    TITLE "0:"
    INDEX 01 00:07:41
  TRACK 08 AUDIO
    TITLE "7:cjc057_05225"
    INDEX 01 00:08:44
  TRACK 09 AUDIO
    TITLE "0:"
    INDEX 01 00:09:71
  TRACK 10 AUDIO
    TITLE "8:cjc057_05226"
    INDEX 01 00:10:19
  TRACK 11 AUDIO
    TITLE "0:"
    INDEX 01 00:11:40
  TRACK 12 AUDIO
    TITLE "9:cjc057_05227"
    INDEX 01 00:12:05
  TRACK 13 AUDIO
    TITLE "0:"
    INDEX 01 00:15:56
  TRACK 14 AUDIO
    TITLE "7:cjc057_05228"
    INDEX 01 00:16:55
  TRACK 15 AUDIO
    TITLE "0:"
    INDEX 01 00:18:03
  TRACK 16 AUDIO
    TITLE "8:cjc057_05229"
    INDEX 01 00:18:27
  TRACK 17 AUDIO
    TITLE "0:"
    INDEX 01 00:19:50
  TRACK 18 AUDIO
    TITLE "9:cjc057_05230"
    INDEX 01 00:20:12
  TRACK 19 AUDIO
    TITLE "0:"
    INDEX 01 00:23:71
  TRACK 20 AUDIO
    TITLE "7:cjc057_05231"
    INDEX 01 00:24:67
  TRACK 21 AUDIO
    TITLE "0:"
    INDEX 01 00:26:32
  TRACK 22 AUDIO
    TITLE "8:cjc057_05232"
    INDEX 01 00:26:60
  TRACK 23 AUDIO
    TITLE "0:"
    INDEX 01 00:28:23
  TRACK 24 AUDIO
    TITLE "9:cjc057_05233"
    INDEX 01 00:28:62
  TRACK 25 AUDIO
    TITLE "0:"
    INDEX 01 00:32:54
  TRACK 26 AUDIO
    TITLE "7:cjc057_05234"
    INDEX 01 00:33:54
  TRACK 27 AUDIO
    TITLE "0:"
    INDEX 01 00:35:10
  TRACK 28 AUDIO
    TITLE "8:cjc057_05235"
    INDEX 01 00:35:39
  TRACK 29 AUDIO
    TITLE "0:"
    INDEX 01 00:37:01
  TRACK 30 AUDIO
    TITLE "9:cjc057_05236"
    INDEX 01 00:37:44
  TRACK 31 AUDIO
    TITLE "0:"
    INDEX 01 00:41:38
  TRACK 32 AUDIO
    TITLE "7:cjc057_05237"
    INDEX 01 00:42:41
  TRACK 33 AUDIO
    TITLE "0:"
    INDEX 01 00:43:70
  TRACK 34 AUDIO
    TITLE "8:cjc057_05238"
    INDEX 01 00:44:24
  TRACK 35 AUDIO
    TITLE "0:"
    INDEX 01 00:46:53
  TRACK 36 AUDIO
    TITLE "9:cjc057_05239"
    INDEX 01 00:47:13
  TRACK 37 AUDIO
    TITLE "0:"
    INDEX 01 00:50:48
  TRACK 38 AUDIO
    TITLE "7:cjc057_05240"
    INDEX 01 00:51:48
  TRACK 39 AUDIO
    TITLE "0:"
    INDEX 01 00:53:09
  TRACK 40 AUDIO
    TITLE "8:cjc057_05241"
    INDEX 01 00:53:35
  TRACK 41 AUDIO
    TITLE "0:"
    INDEX 01 00:56:16
  TRACK 42 AUDIO
    TITLE "9:cjc057_05242"
    INDEX 01 00:56:57
  TRACK 43 AUDIO
    TITLE "0:"
    INDEX 01 01:00:17
  TRACK 44 AUDIO
    TITLE "7:cjc057_05243"
    INDEX 01 01:01:21
  TRACK 45 AUDIO
    TITLE "0:"
    INDEX 01 01:02:57
  TRACK 46 AUDIO
    TITLE "8:cjc057_05244"
    INDEX 01 01:03:10
  TRACK 47 AUDIO
    TITLE "0:"
    INDEX 01 01:04:47
  TRACK 48 AUDIO
    TITLE "9:cjc057_05245"
    INDEX 01 01:05:09
  TRACK 49 AUDIO
    TITLE "0:"
    INDEX 01 01:09:18
  TRACK 50 AUDIO
    TITLE "7:cjc057_05246"
    INDEX 01 01:10:16
  TRACK 51 AUDIO
    TITLE "0:"
    INDEX 01 01:11:41
  TRACK 52 AUDIO
    TITLE "8:cjc057_05247"
    INDEX 01 01:11:70
  TRACK 53 AUDIO
    TITLE "0:"
    INDEX 01 01:13:40
  TRACK 54 AUDIO
    TITLE "9:cjc057_05248"
    INDEX 01 01:14:06
  TRACK 55 AUDIO
    TITLE "0:"
    INDEX 01 01:17:14
  TRACK 56 AUDIO
    TITLE "7:cjc057_05249"
    INDEX 01 01:18:15
  TRACK 57 AUDIO
    TITLE "0:"
    INDEX 01 01:19:38
  TRACK 58 AUDIO
    TITLE "8:cjc057_05250"
    INDEX 01 01:19:68
  TRACK 59 AUDIO
    TITLE "0:"
    INDEX 01 01:21:31
  TRACK 60 AUDIO
    TITLE "9:cjc057_05251"
    INDEX 01 01:21:72
  TRACK 61 AUDIO
    TITLE "0:"
    INDEX 01 01:25:23
  TRACK 62 AUDIO
    TITLE "7:cjc057_05252"
    INDEX 01 01:26:25
  TRACK 63 AUDIO
    TITLE "0:"
    INDEX 01 01:27:46
  TRACK 64 AUDIO
    TITLE "8:cjc057_05253"
    INDEX 01 01:28:00
  TRACK 65 AUDIO
    TITLE "0:"
    INDEX 01 01:29:07
  TRACK 66 AUDIO
    TITLE "9:cjc057_05254"
    INDEX 01 01:29:50
  TRACK 67 AUDIO
    TITLE "0:"
    INDEX 01 01:33:34
  TRACK 68 AUDIO
    TITLE "7:cjc057_05255"
    INDEX 01 01:34:36
  TRACK 69 AUDIO
    TITLE "0:"
    INDEX 01 01:36:00
  TRACK 70 AUDIO
    TITLE "8:cjc057_05256"
    INDEX 01 01:36:25
  TRACK 71 AUDIO
    TITLE "0:"
    INDEX 01 01:37:56
  TRACK 72 AUDIO
    TITLE "9:cjc057_05257"
    INDEX 01 01:38:20
  TRACK 73 AUDIO
    TITLE "0:"
    INDEX 01 01:42:14
